<mxfile host="app.diagrams.net" agent="Mozilla/5.0 (Windows NT 10.0; Win64; x64) AppleWebKit/537.36 (KHTML, like Gecko) Chrome/132.0.0.0 Safari/537.36 Edg/132.0.0.0" version="26.0.11">
  <diagram name="Page-1" id="ZEZ5xU0Myxhx7QWCWGiU">
    <mxGraphModel dx="1041" dy="1422" grid="1" gridSize="10" guides="1" tooltips="1" connect="1" arrows="1" fold="1" page="1" pageScale="1" pageWidth="850" pageHeight="1100" math="0" shadow="0">
      <root>
        <mxCell id="0" />
        <mxCell id="1" parent="0" />
        <mxCell id="AsSuHDZYpOZwhkrZHTpW-25" value="" style="edgeStyle=orthogonalEdgeStyle;rounded=0;orthogonalLoop=1;jettySize=auto;html=1;entryX=0;entryY=0.5;entryDx=0;entryDy=0;exitX=1;exitY=0.5;exitDx=0;exitDy=0;" edge="1" parent="1" source="AsSuHDZYpOZwhkrZHTpW-7" target="AsSuHDZYpOZwhkrZHTpW-2">
          <mxGeometry relative="1" as="geometry">
            <mxPoint x="300" y="350" as="sourcePoint" />
          </mxGeometry>
        </mxCell>
        <mxCell id="AsSuHDZYpOZwhkrZHTpW-2" value="Prompt&amp;nbsp;&lt;span style=&quot;background-color: transparent; color: light-dark(rgb(0, 0, 0), rgb(255, 255, 255));&quot;&gt;Cache&lt;/span&gt;" style="rounded=1;whiteSpace=wrap;html=1;" vertex="1" parent="1">
          <mxGeometry x="360" y="275" width="95" height="30" as="geometry" />
        </mxCell>
        <mxCell id="AsSuHDZYpOZwhkrZHTpW-4" value="Student Activity (Sentence Constructor)" style="rounded=1;whiteSpace=wrap;html=1;labelPosition=center;verticalLabelPosition=middle;align=center;verticalAlign=top;" vertex="1" parent="1">
          <mxGeometry x="200" y="100" width="585" height="300" as="geometry" />
        </mxCell>
        <mxCell id="AsSuHDZYpOZwhkrZHTpW-6" value="Input Guardrails" style="rounded=1;whiteSpace=wrap;html=1;" vertex="1" parent="1">
          <mxGeometry x="480" y="275" width="120" height="30" as="geometry" />
        </mxCell>
        <mxCell id="AsSuHDZYpOZwhkrZHTpW-16" value="" style="edgeStyle=orthogonalEdgeStyle;rounded=0;orthogonalLoop=1;jettySize=auto;html=1;" edge="1" parent="1" source="AsSuHDZYpOZwhkrZHTpW-7" target="AsSuHDZYpOZwhkrZHTpW-14">
          <mxGeometry relative="1" as="geometry" />
        </mxCell>
        <mxCell id="AsSuHDZYpOZwhkrZHTpW-7" value="RAG" style="rounded=1;whiteSpace=wrap;html=1;" vertex="1" parent="1">
          <mxGeometry x="230" y="275" width="90" height="30" as="geometry" />
        </mxCell>
        <mxCell id="AsSuHDZYpOZwhkrZHTpW-9" value="Model API" style="rounded=1;whiteSpace=wrap;html=1;align=center;labelPosition=center;verticalLabelPosition=middle;verticalAlign=top;" vertex="1" parent="1">
          <mxGeometry x="640" y="275" width="120" height="70" as="geometry" />
        </mxCell>
        <mxCell id="AsSuHDZYpOZwhkrZHTpW-11" value="Student&lt;div&gt;&lt;br&gt;&lt;/div&gt;" style="verticalLabelPosition=bottom;html=1;verticalAlign=top;align=center;strokeColor=none;fillColor=#00BEF2;shape=mxgraph.azure.user;" vertex="1" parent="1">
          <mxGeometry x="55" y="280" width="60" height="65" as="geometry" />
        </mxCell>
        <mxCell id="AsSuHDZYpOZwhkrZHTpW-13" value="Response" style="endArrow=classic;html=1;rounded=0;exitX=0;exitY=0.5;exitDx=0;exitDy=0;" edge="1" parent="1" source="AsSuHDZYpOZwhkrZHTpW-18">
          <mxGeometry width="50" height="50" relative="1" as="geometry">
            <mxPoint x="255" y="329.5" as="sourcePoint" />
            <mxPoint x="115" y="329.5" as="targetPoint" />
          </mxGeometry>
        </mxCell>
        <mxCell id="AsSuHDZYpOZwhkrZHTpW-14" value="DB" style="shape=cylinder3;whiteSpace=wrap;html=1;boundedLbl=1;backgroundOutline=1;size=15;" vertex="1" parent="1">
          <mxGeometry x="245" y="140" width="60" height="80" as="geometry" />
        </mxCell>
        <mxCell id="AsSuHDZYpOZwhkrZHTpW-3" value="Generation" style="rounded=1;whiteSpace=wrap;html=1;" vertex="1" parent="1">
          <mxGeometry x="655" y="305" width="90" height="30" as="geometry" />
        </mxCell>
        <mxCell id="AsSuHDZYpOZwhkrZHTpW-17" style="edgeStyle=orthogonalEdgeStyle;rounded=0;orthogonalLoop=1;jettySize=auto;html=1;exitX=0.5;exitY=1;exitDx=0;exitDy=0;" edge="1" parent="1" source="AsSuHDZYpOZwhkrZHTpW-9" target="AsSuHDZYpOZwhkrZHTpW-9">
          <mxGeometry relative="1" as="geometry" />
        </mxCell>
        <mxCell id="AsSuHDZYpOZwhkrZHTpW-18" value="Output Guardrails" style="rounded=1;whiteSpace=wrap;html=1;" vertex="1" parent="1">
          <mxGeometry x="480" y="315" width="120" height="30" as="geometry" />
        </mxCell>
        <mxCell id="AsSuHDZYpOZwhkrZHTpW-20" value="" style="endArrow=classic;html=1;rounded=0;entryX=0;entryY=0.5;entryDx=0;entryDy=0;exitX=1;exitY=0.5;exitDx=0;exitDy=0;" edge="1" parent="1" source="AsSuHDZYpOZwhkrZHTpW-2" target="AsSuHDZYpOZwhkrZHTpW-6">
          <mxGeometry width="50" height="50" relative="1" as="geometry">
            <mxPoint x="255" y="490" as="sourcePoint" />
            <mxPoint x="305" y="440" as="targetPoint" />
          </mxGeometry>
        </mxCell>
        <mxCell id="AsSuHDZYpOZwhkrZHTpW-21" value="Query" style="endArrow=classic;html=1;rounded=0;" edge="1" parent="1">
          <mxGeometry width="50" height="50" relative="1" as="geometry">
            <mxPoint x="110" y="289.5" as="sourcePoint" />
            <mxPoint x="230" y="289.5" as="targetPoint" />
          </mxGeometry>
        </mxCell>
        <mxCell id="AsSuHDZYpOZwhkrZHTpW-23" value="" style="endArrow=classic;html=1;rounded=0;" edge="1" parent="1">
          <mxGeometry width="50" height="50" relative="1" as="geometry">
            <mxPoint x="600" y="289.5" as="sourcePoint" />
            <mxPoint x="640" y="289.5" as="targetPoint" />
          </mxGeometry>
        </mxCell>
        <mxCell id="AsSuHDZYpOZwhkrZHTpW-24" value="" style="endArrow=classic;html=1;rounded=0;" edge="1" parent="1">
          <mxGeometry width="50" height="50" relative="1" as="geometry">
            <mxPoint x="640" y="329.5" as="sourcePoint" />
            <mxPoint x="600" y="330" as="targetPoint" />
          </mxGeometry>
        </mxCell>
      </root>
    </mxGraphModel>
  </diagram>
</mxfile>
